<svg width="14" height="14" viewBox="0 0 14 14" fill="none" xmlns="http://www.w3.org/2000/svg">
<path d="M11.3636 3.18182V12.5091C11.3636 12.7802 11.1338 13 10.8503 13H3.14973C2.86621 13 2.63636 12.7802 2.63636 12.5091V3.18182M11.3636 3.18182H13M11.3636 3.18182H9.45455M2.63636 3.18182H1M2.63636 3.18182H4.54545M9.45455 3.18182V2C9.45455 1.44771 9.00683 1 8.45455 1H5.54546C4.99317 1 4.54545 1.44772 4.54545 2V3.18182M9.45455 3.18182H4.54545M4.81818 5.36364V10.8182M7 5.36364V10.8182M9.18182 5.36364V10.8182" stroke="white" stroke-width="1.2" stroke-linecap="round" stroke-linejoin="round"/>
</svg>
