<svg width="50" height="50" viewBox="0 0 48 48" fill="none" xmlns="http://www.w3.org/2000/svg">
<path fill-rule="evenodd" clip-rule="evenodd" d="M25.6874 19.8549L24.5892 20.9533C24.4329 21.1096 24.2209 21.1974 23.9999 21.1974C23.7789 21.1974 23.5669 21.1096 23.4106 20.9533L22.3122 19.8549C21.1732 18.7159 19.3265 18.7159 18.1874 19.8549C17.0484 20.994 17.0484 22.8407 18.1874 23.9797L23.9999 29.7921L29.8122 23.9797C30.9513 22.8407 30.9513 20.994 29.8122 19.8549C28.6732 18.7159 26.8265 18.7159 25.6874 19.8549ZM24.5089 18.6764C26.2988 16.8865 29.2008 16.8865 30.9907 18.6764C32.7806 20.4663 32.7806 23.3683 30.9907 25.1582L24.5891 31.5599C24.4329 31.7162 24.2209 31.804 23.9999 31.804C23.7789 31.804 23.5669 31.7162 23.4106 31.5599L17.0089 25.1582C15.219 23.3683 15.219 20.4663 17.0089 18.6764C18.7988 16.8865 21.7008 16.8865 23.4907 18.6764L23.9999 19.1855L24.5089 18.6764Z" fill="white"/>
</svg>
